<?xml version="1.0" encoding="utf-8"?>
<!-- Generator: Adobe Illustrator 25.2.0, SVG Export Plug-In . SVG Version: 6.00 Build 0)  -->
<svg version="1.2" baseProfile="tiny" xmlns="http://www.w3.org/2000/svg" xmlns:xlink="http://www.w3.org/1999/xlink" x="0px"
	 y="0px" viewBox="0 0 1920 1080" overflow="visible" xml:space="preserve">
<g id="Layer_2">
	<image width="1920" height="1080" xlink:href="651FD119.png" >
	</image>
</g>
<g id="Layer_1">
	<g id="Layer_1_1_">
		<path fill="none" stroke="#29ABE2" stroke-width="2" stroke-miterlimit="10" d="M454.8,623.3c-14.8-1-29.6-2.5-44.4-4.6
			c-14.9-2.1-30.1-4.9-44.9-2.4s-29.7,11.4-34.5,25.7c-6.2,18.5,6.4,33.2,7,52.7c1-1.1,1.3-2.6,1-4c-13.6-0.2-27.2,2.4-39.8,7.7
			c-5.5,2.3-10.9,5.2-14.3,10c-3.9,5.7-4.3,13.1-3.8,20.1c1.2,17.5,7,34.5,15.2,50c2.7,5.1,5.9,10.3,10.9,13.1
			c3.1,1.7,6.6,2.5,10.1,3c7.9,1.2,16.2,1.5,23.7-1.5s16.1-15.3,16.5-23.3c9.8,14.7,10.5,33.4,10.9,51c0.5,22.7,1,45.5-0.5,68.2
			c113.5-2.3,228.4-8.2,341.4-18c-1.9-11.9-2.5-25.9-2.3-38c0.1-5.7,0.4-11.3,0.8-17c0.4-7.4,0.9-14.9,3.6-21.8
			c3.7-9.7,11.4-17.2,18.9-24.4c9.3,5.2,9.4,16.4,19.6,13.1s18.8-11.1,23.2-20.9c4.4-9.8,4.6-21,3.8-31.8
			c-0.8-10.3-2.7-21.1-9.6-28.7c-9.9-10.9-29.3-10.8-39.2,0.1c5,0.5,1.4,5.3,1.7,0.3c0.3-5-1.8-9.8-2.6-14.7
			c-1.8-11,2.4-22,5.2-32.9c2.8-10.8,3.9-23.4-3.1-32.2c-8.5-10.7-24.6-10.5-38.3-9.3c-38.2,3.4-76.3,7.1-114.5,9.5
			c-18.6,1.2-37.2,2-55.8,2.3c-17.7,0.3-36,1-53.7-0.8c-11-1.1-11.8-10.1-11.8-19.4c4.3,4,9.3,1.1,14.9,3.1c0.6,0.2,1.4,0.4,2,0.2
			c0.7-0.3,1.1-1,1.5-1.7c4-7.7,8.2-15.8,7.9-24.4c4.2,2.5,2.9,0.4,7.7,1.1c3.5-13.5-9-25.8-11.1-39.6c-0.7-4.5-0.3-9.5-2.7-13.4
			c-11-0.3-22.6,3.2-31.1,10.2c-2.4,2-4.8,4.1-6.7,6.6c-5.5,7.1-7.2,16.5-7.4,25.5c-3.2-0.4-4.6,1.5-7.8,1.1
			c1.1-6.3-1.3-12.9-2.7-19.2c-8,5.2-13,18.2-8.4,26.5c1.7,3.2,1,10.2,3.2,13.1c-9.7-9.8-16.6-36.3-10.3-48.6
			c6.2-12.3,17.6-21.1,29.3-28.3c9.9-6.1,20.5-11.4,32-13.2c4.1-0.6,8.5-0.8,12.4,0.6s7.4,4.7,8,8.9c2.8-4.7-0.5,4,2.9-0.2
			c-2.1,6.3-6.2,10.9-11.7,14.8"/>
		<path fill="none" stroke="#29ABE2" stroke-width="2" stroke-miterlimit="10" d="M599.3,636.7c-12.9,7.7-16.5,24.9-29,33.3
			c16.6-20.2,25-47,22.8-73.1c-0.8-9.7-3-19.3-2.9-29s2.7-20,9.9-26.6c7.2-6.5,19.8-7.6,26.3-0.4c3.6-5.7,9-11.1,14.9-14.3
			s13.8-3.7,19.3,0.2c6.4,4.6,8,13.4,8.1,21.3c0.2,22.5-7.5,44.7-6.4,67.2"/>
		<path fill="none" stroke="#29ABE2" stroke-width="2" stroke-miterlimit="10" d="M647.4,616.6c-2,1.9-1.7,5.2-1.2,7.9
			c3.5,18,9.9,35.4,18.7,51.4c-19.7-13.5-33.1-35.8-35.8-59.5"/>
		<path fill="none" stroke="#29ABE2" stroke-width="2" stroke-miterlimit="10" d="M598.3,636.1c1.7-5.1,4.2-10,7.4-14.3"/>
		<path fill="none" stroke="#29ABE2" stroke-width="2" stroke-miterlimit="10" d="M613.5,563c-2.4,10.4-5.7,20.7-9.8,30.5"/>
		<path fill="none" stroke="#29ABE2" stroke-width="2" stroke-miterlimit="10" d="M633.1,584.8c1.5-11.3,2.9-22.5,4.4-33.8
			c0.7,10.5,14.5,18.9,15.3,29.4"/>
		<path fill="none" stroke="#29ABE2" stroke-width="2" stroke-miterlimit="10" d="M413.7,344.8c-2.8,16.3-3.5,32.8-4.1,49.3
			c-1.2,32.7-2.2,66.6,11,96.5c0.9,2,3.2,4.3,4.8,2.8c74,0.9,148-2.6,221.6-10.3c11.9-19.6,16.2-43.1,16.1-66.1s-4.6-45.6-9-68.2
			c-1.5-7.6-3.7-16.3-10.7-19.6c-4.2-2-9.2-1.5-13.8-1.1c-21.3,2.1-42.8,2.7-64.2,1.8c-28.7-1.2-57.4-5.2-86-3.8
			c-28.7,1.3-58.2,8.5-80.3,26.9"/>
		<path fill="none" stroke="#29ABE2" stroke-width="2" stroke-miterlimit="10" d="M485,507.5c2.3,7.1,12.2,7.3,19.5,6.2
			c52.4-7.7,105.6-10.6,158.5-8.7c3.8,0.1,8.5-0.2,10.2-3.5c0.5-1.1,0.7-2.3,0.8-3.5c2-17.6,3.9-35.3,5.9-52.9
			c4.9-44,9.8-88.3,5.4-132.4c-27.7,2-55.2-5.4-82.8-7.9c-19-1.7-38.2-1.1-57.3-0.4c-9.5,0.4-19.4,1.6-29,1c-2-0.1-4-0.5-5.9-1.3
			c-3.5-1.5-5.5-4.6-6.2-8.2c-2.1-10.2,1.8-22.1,7-30.8c4.6-7.6,11-14.2,18.8-18.5c3.4-1.9,7-3.4,10.9-4.1
			c10.8-1.9,22.2,3.1,29.5,11.2s11,19.2,12.1,30.1c0.5,5.2,0.5,10.5-0.1,15.7c-8-1.5-16.4-2.9-24.1-0.5c-5.7,1.8-10.7,5.5-16.5,6.8
			c-12,3-24.3-4.6-36.5-3.1c-3.8,0.5-7.3,1.8-11,2.6c-2.5,0.6-5,1-7.5,1.2c-12.6,1.2-25.4,1.3-38.1,1.9c-5.8,0.3-11.5,0.6-17.3,0.9
			c-9.7,0.5-19.8,1.1-28.1,6.1c-8.3,5-11.3,7.3-7.2,16c-2.8,18.1-4.8,36.4-5.9,54.8c-0.6,10.4-1,20.8,0.9,31.1
			c1.5,8.1,4.2,15.8,5.8,23.9c3.4,17,1.4,34.6,2.5,51.9c0.3,4.4,0.9,9.1,3.9,12.3c4.5,4.8,12.1,4.2,18.6,3.4c13-1.8,26-3.6,39-5.4"
			/>
		<path fill="none" stroke="#29ABE2" stroke-width="2" stroke-miterlimit="10" d="M614.2,212c-5.2,1.6-10.3,4-14.9,6.9
			c0.6,3.7,4.8,6.3,8.5,5.3s6.1-4.9,5.6-8.6s-3.6-6.9-7.3-7.7c-1.2-0.3-3.1,0.3-2.7,1.5"/>
		<path fill="none" stroke="#29ABE2" stroke-width="2" stroke-miterlimit="10" d="M515.8,262c-15.5-7.8-27.4-42.5-43.5-49.2
			c0.6-3.6,6.6-3.9,8.5-0.7c1.9,3.2,0.5,7.4-2,10.1c-0.5,0.6-1.1,1.1-1.8,1.3c-3.2,1-4.7-4.3-7.7-5.8c2.2-4.4,5.1-8.4,8.5-12"/>
		<path fill="none" stroke="#29ABE2" stroke-width="2" stroke-miterlimit="10" d="M571.3,256c0.9-8.3,8.4-14.2,15.5-18.6
			c7.1-4.4,15-9.1,17.7-17.1"/>
		<path fill="none" stroke="#29ABE2" stroke-width="2" stroke-miterlimit="10" d="M573.3,367c-8.3,6.4-16.7,12.8-25,19.2
			c-8.4,6.5-17.7,14.9-16.6,25.4c0.7,6.5,5.2,11.8,7.8,17.7c4.2,9.6,1.4,23.2-8.5,26.6c-6.2,2.1-13-0.3-19-2.8
			c-26.2-10.8-51.5-23.4-75.9-37.9c-4.5-2.6-4.4-10.2-1.8-14.6c20.5,0.7,39.3-10.5,55.7-22.8s32.1-26.4,51.5-32.9
			c7.5-2.5,15.9-3.8,23-0.4C571.8,348,579.5,362.1,573.3,367z"/>
		<path fill="none" stroke="#29ABE2" stroke-width="2" stroke-miterlimit="10" d="M619.8,403.2c2.6,10.2,5,20.5,7.2,30.8
			c-2.6-9.2-12.5-14.4-21.9-16.2c8.8-5.4,19.6-7.3,29.7-5.2c0.2,3.3-6.3,6.9-8.5,8.7c-1.8,1.5-3.6,2.9-5.4,4.4
			c-1.4,1.1-3.1,3.2-4.9,3.6c-2.9,0.7-4.6-2.5-5-4.9c-0.7-3.8,1.3-8.2,2.5-11.8c0.8-2.2,1.4-4.7,2.5-6.8
			C616.2,405.6,619.4,401.7,619.8,403.2z"/>
		<path fill="none" stroke="#29ABE2" stroke-width="2" stroke-miterlimit="10" d="M456.3,365.1c-9.8-5.6-20.9-9-32.1-9.9
			c16.7-1.7,32.1-9.2,47.2-16.5c-1.4,0.7-3.1,4.1-4.3,5.3c-1.6,1.6-3.3,3.1-5.1,4.6c-3.7,3-7.6,5.8-11.3,8.8
			c-1.4,1.2-6.3,7.3-7.7,5.4c-1.3-1.8,0.5-7.2,1-9c1.5-5.6,3.2-12,6.1-17C456.4,343.9,458,356,456.3,365.1z"/>
		<path fill="none" stroke="#29ABE2" stroke-width="2" stroke-miterlimit="10" d="M566.7,467.6c2-8,4.8-15.7,8.6-23.1
			c3.2,7.5,5.4,15.5,6.4,23.6c-7.6-2.3-15-5.3-22.1-8.9c0.8-1.2,2.3-1.7,3.7-2.1c8.7-2.4,17.3-4.8,26-7.1
			c-6.6,9.7-16.3,17.2-27.3,21.1"/>
		<path fill="none" stroke="#29ABE2" stroke-width="2" stroke-miterlimit="10" d="M495.9,440.1c1.5-6.2,2.9-12.6,1.8-18.8
			c-1.1-5.9-4.7-11.3-9.9-14.3s-11.8-3.4-17.1-0.8c-6.4,3.1-10.1,9.8-13.4,16c-10,2.5-9.4,10.8-15.8,18.9c7-1.5,13.6-5,18.8-10
			c-4.4,7.6-14.6,10.6-18.1,18.6c5.5-3.5,10.9-7,16.4-10.6c-5.4,5.5-10.1,11.5-14.2,18c6.1-3.1,12-6.7,17.5-10.7
			c0.5,6.1-8.7,9.1-9.5,15.2c6.1-3.2,12.1-6.9,17.7-11c-0.7,2-1.6,3.9-2.5,5.8c5-5.2,10.4-10.1,16.1-14.6c-1,2-2,4-3,6
			c4.3-3.5,8-7.9,10.8-12.7c-2.8,0.7-5.7,0.3-8.2-1c2-2.7,4.1-5.3,6.1-8c-2.3,1.6-5.7,1.2-7.7-0.7c-0.8-0.8-1.4-1.8-2.3-2.5
			c-3.8-2.8-10.5,2.1-13.5-1.6"/>
		<path fill="none" stroke="#29ABE2" stroke-width="2" stroke-miterlimit="10" d="M556.3,356.3c1.7,2.1,2.8,4.8,3,7.5
			c0,0.1,0,0.3,0.2,0.4c0.2,0.1,0.4,0,0.6-0.1c2.1-1.5,4.3-3,6.2-4.8c1.3-1.3,2.6-2.7,3.3-4.4s1-3.7,0.3-5.4"/>
		<path fill="none" stroke="#29ABE2" stroke-width="2" stroke-miterlimit="10" d="M556,356.5c1.1-0.9,1.9-2.1,2.5-3.4
			c1.5-2.9,2.4-6.3,1.2-9.3c-0.1-0.1-0.3-0.3-0.3-0.1"/>
		<path fill="none" stroke="#29ABE2" stroke-width="2" stroke-miterlimit="10" d="M547.7,373c0.9-0.5,1.7-1.3,2.5-2.1
			c0.8-0.8,1.7-1.7,2.5-2.5c0.3-0.3,0.6-0.6,0.7-1.1c0.1-0.4-0.1-0.8-0.2-1.2c-0.5-1.4-1-2.8-1.5-4.2c-0.2-0.4-0.4-1-0.9-1
			c-0.6-0.1-1.1,0.3-1.5,0.7c-0.8,0.8-1.6,1.6-2.3,2.5c-1.1,1.4-0.9,2.9-0.6,4.6c0.1,0.7,0.3,1.4,0.5,2.1
			C547.3,371.6,547.6,372.3,547.7,373z"/>
		<path fill="none" stroke="#29ABE2" stroke-width="2" stroke-miterlimit="10" d="M534.8,374.5c0,2.4,0,4.8,0.1,7.2
			c0,0.1,0,0.3,0.1,0.5c0.1,0.1,0.2,0.2,0.4,0.3c0.8,0.3,1.7-0.2,2.3-0.8s1.1-1.4,1.8-1.9c0.7-0.6,1.7-1,2.2-1.8
			c0.4-0.8,0.3-1.8,0.2-2.6c-0.2-1.4-0.5-2.8-1.2-4c-0.1-0.1-0.2-0.2-0.3-0.3c-0.2,0-0.3,0-0.5,0.1c-2.8,1.3-5.2,3.3-6.9,5.8"/>
		<path fill="none" stroke="#29ABE2" stroke-width="2" stroke-miterlimit="10" d="M528.4,389.9c0.5-0.5,0.8-1.2,1.1-1.8
			c0.4-1.1,0.5-2.2,0.5-3.4c0-0.6-0.1-1.2-0.1-1.8c0-0.3-0.1-0.6-0.2-0.8c-0.8-1.1-2.9-0.5-3.9-0.1c-1.2,0.5-2.4,1.1-3.2,2.1
			c-1.2,1.4-0.5,3.2-0.1,4.8c0.3,1.4,0.4,3.2,1,4.5C525.3,392.9,527.2,391.3,528.4,389.9z"/>
		<path fill="none" stroke="#29ABE2" stroke-width="2" stroke-miterlimit="10" d="M606.1,380.1c2-7.6,4-15.2,6.1-22.8
			c0.8-3,1.7-6,3.2-8.7c0.3-0.5,0.6-1,1.2-1c0.5,0,0.9,0.5,1.2,1c1.1,2,1.4,4.3,1.7,6.6c0.9,6,1.7,12,2.6,18.1
			c-3.5-3.8-8.6-6.2-13.8-6.5c-1.9-0.1-3.9,0.1-5.8-0.5c-0.2-0.1-0.5-0.2-0.6-0.4c-0.3-0.4,0-1,0.4-1.4c0.9-1,2.2-1.6,3.4-2.2
			c7.8-3.8,15.9-6.9,24.2-9.5c-0.4,1.3-1.4,2.3-2.4,3.2c-8.5,7.9-16.4,16.5-23.5,25.6"/>
		<path fill="none" stroke="#29ABE2" stroke-width="2" stroke-miterlimit="10" d="M496.2,359.1c-0.7-9.3-0.4-18.7,0.8-27.9
			c0-0.2,0.1-0.4,0.2-0.6c0.3-0.5,1.2-0.4,1.7,0c0.9,0.7,1.4,1.8,1.8,2.8c2.2,5.1,4.3,10.2,6.5,15.2c-6.3-0.9-12.7-1.3-19.1-1
			c-1.2,0-2.7,0-3.4-1c7.6-4.6,15.2-9.1,22.8-13.5c1.3-0.8,2.6-1.5,4-2c0.2,0.5-0.1,1.2-0.4,1.7c-5.6,8.7-14.3,15.5-18.1,25"/>
		<path fill="none" stroke="#29ABE2" stroke-width="2" stroke-miterlimit="10" d="M635.8,464.3c40.4,9.4,76.7,30.9,114.3,48.3
			c9.4,4.4,19,8.5,28.6,12.4"/>
		<path fill="none" stroke="#29ABE2" stroke-width="2" stroke-miterlimit="10" d="M646.3,416.3c16.2,3.1,31.3,10,46.7,15.8
			c15.4,5.8,31.7,10.6,48.1,9.1"/>
		<path fill="none" stroke="#29ABE2" stroke-width="2" stroke-miterlimit="10" d="M649.1,379.6c31.1-18.9,62.9-36.5,95.3-53"/>
		<path fill="none" stroke="#29ABE2" stroke-width="2" stroke-miterlimit="10" d="M645.1,315.9c19.7-26.7,39.3-53.4,59-80.2"/>
		<path fill="none" stroke="#29ABE2" stroke-width="2" stroke-miterlimit="10" d="M455.4,324.5c-15.8-31.6-31.6-63.2-47.4-94.8"/>
		<path fill="none" stroke="#29ABE2" stroke-width="2" stroke-miterlimit="10" d="M409.9,344.6c-31.8-16.6-65.8-33.6-101.6-30.7"/>
		<path fill="none" stroke="#29ABE2" stroke-width="2" stroke-miterlimit="10" d="M416,421.8c-27.1,2.8-53.6,10-78.4,21.2
			c-7,3.2-14.1,6.9-18.5,13.2"/>
		<path fill="none" stroke="#29ABE2" stroke-width="2" stroke-miterlimit="10" d="M421.4,480.8c-25.4,20.8-51.3,41.1-77.7,60.8"/>
		<path fill="none" stroke="#FF00FF" stroke-width="2" stroke-miterlimit="10" d="M518.6,531.5c-2.3-3-4.8-6.2-8.4-7.6
			c-3.6-1.3-8.5,0.1-9.4,3.8c-0.3,1.1-0.1,2.2,0,3.4c1,6.5,3.7,12.7,7.9,17.7c2.1,2.6,5.4,5.1,8.6,3.8c0.8-0.3,1.6-0.9,2.3-1.5
			c8.3-7.1,13.5-17.5,14.4-28.4c0.1-1,0.1-2.2-0.5-3c-1.4-1.8-4.3-0.7-6.2,0.6c-4.6,3.2-8.8,6.9-12.6,11c-1,1.1-8.8,1.2-9.5,2.5
			c1.9-2.1,3.5-4.5,4.9-6.9c-2.7,3.4-4.6,7.4-5.7,11.6c1.6-3.6,4.2-6.8,7.6-9c-1.5,3.5-2.4,7.3-2.5,11.1c2-2.4,3.9-4.7,5.9-7.1
			c-1.8,3.6-2.9,7.7-3.1,11.7c2-2.8,3.9-5.7,5.9-8.5c-2.3,3.5-3.9,7.5-4.7,11.7c4.6-4.8,8.4-10.4,11.2-16.4
			c-1.9,2.1-3.2,4.8-3.4,7.7c3.6-4.4,6.5-9.3,8.8-14.5c-1.4,1.7-2.8,3.4-4.3,5.2c0.8-3.1,1.2-6.3,1.3-9.5c-4.5,3.2-7.5,8.3-8.1,13.7
			c4-1.5,7.6-3.8,10.5-6.9c-3.6,5.4-6.9,11.1-9.7,17c0.4-0.7,1.3-1.1,2.1-0.8c-2.6,3-5.3,6.1-7.9,9.1c2.8-4.5,6.3-8.5,10.2-12
			c1.3-1.1,3.5-2.1,4.5-0.8c0.1-2.2,0.2-4.3,0.3-6.5"/>
	</g>
</g>
</svg>
